<?xml version="1.0" encoding="utf-8"?>
<!-- Generator: Adobe Illustrator 26.0.1, SVG Export Plug-In . SVG Version: 6.00 Build 0)  -->
<svg version="1.1" id="Layer_1" xmlns="http://www.w3.org/2000/svg" xmlns:xlink="http://www.w3.org/1999/xlink" x="0px" y="0px"
	 viewBox="0 0 67.4 30.1" style="enable-background:new 0 0 67.4 30.1;" xml:space="preserve">
<style type="text/css">
	.st0{fill:#231F20;}
</style>
<g>
	<g>
		<g>
			<path class="st0" d="M-1.5,26c-0.1,0,0,0.1-0.1,0.1C-1.4,26-1.5,26-1.5,26z"/>
		</g>
		<g>
			<polygon class="st0" points="0.3,25.1 0.2,25.1 0.5,24.9 			"/>
		</g>
		<g>
			<path class="st0" d="M2,24.4c-0.2-0.1-0.6,0.3-1,0.3l-0.1,0l-0.1,0.2C1.3,24.7,1.7,24.5,2,24.4z"/>
		</g>
		<g>
			<path class="st0" d="M3.1,24.3c-0.1,0,0.2-0.1-0.2,0.1c0,0,0,0,0,0C2.9,24.3,3,24.3,3.1,24.3z"/>
		</g>
		<g>
			<path class="st0" d="M2.9,24.4C2.7,24.4,3,24.4,2.9,24.4L2.9,24.4z"/>
		</g>
		<g>
			<path class="st0" d="M3.7,24l-0.2,0.1c0.1,0,0.3-0.1,0.2,0C4,24,3.9,24,3.7,24z"/>
		</g>
		<g>
			<path class="st0" d="M3.9,23.9l-0.1,0.1C3.8,23.9,3.9,23.9,3.9,23.9z"/>
		</g>
		<g>
			<path class="st0" d="M3.6,24.1l0.3-0.1c0,0-0.1,0-0.1,0.1C3.7,23.9,3.7,24,3.6,24.1z"/>
		</g>
		<g>
			<path class="st0" d="M3.4,24.1C3.2,24.1,3.1,24.2,3.4,24.1C2.8,24.2,2.9,24.3,3.4,24.1z"/>
		</g>
		<g>
			<path class="st0" d="M2.1,24.2l-0.2,0l-0.1,0.1C1.8,24.3,2.1,24.3,2.1,24.2z"/>
		</g>
		<g>
			<path class="st0" d="M5.3,23.6c0,0-0.1,0-0.1-0.1L5,23.6C5.1,23.6,5.3,23.5,5.3,23.6z"/>
		</g>
		<g>
			<path class="st0" d="M5.2,23.5l0.3-0.1C5.2,23.4,5.1,23.5,5.2,23.5z"/>
		</g>
		<g>
			<path class="st0" d="M3.9,23.7L3.5,24C3.7,23.9,3.8,23.8,3.9,23.7C4,23.7,4,23.7,3.9,23.7z"/>
		</g>
		<g>
			<polygon class="st0" points="6.3,23.2 6.2,23.3 6.5,23.2 			"/>
		</g>
		<g>
			<path class="st0" d="M7,23c-0.1,0.1,0.2,0,0.1,0.1C7.3,23,7.4,23,7.6,22.9C7.4,22.9,7.3,23,7,23z"/>
		</g>
		<g>
			<path class="st0" d="M7.8,22.7c-0.1,0-0.1,0.1-0.2,0.1C7.7,22.8,7.7,22.8,7.8,22.7z"/>
		</g>
		<g>
			<path class="st0" d="M5.9,23.2c0,0,0.1,0,0.2,0l-0.1,0C6,23.2,5.9,23.2,5.9,23.2z"/>
		</g>
		<g>
			<path class="st0" d="M6,23.2L6,23.2c0.1,0,0.2-0.1,0.2-0.1C6.2,23.1,6.1,23.1,6,23.2z"/>
		</g>
		<g>
			<path class="st0" d="M5.9,23.2C5.9,23.2,5.9,23.2,5.9,23.2C5.9,23.2,5.9,23.2,5.9,23.2z"/>
		</g>
		<g>
			<path class="st0" d="M4.7,23.5c0.1-0.1,0.5-0.2,0.1-0.2C4.7,23.4,4.9,23.4,4.7,23.5z"/>
		</g>
		<g>
			<path class="st0" d="M5.7,23.2l-0.3,0.1c0,0,0.1,0,0,0.1L5.7,23.2z"/>
		</g>
		<g>
			<path class="st0" d="M5.8,23.1c0,0-0.1,0-0.1,0.1L5.8,23.1L5.8,23.1z"/>
		</g>
		<g>
			<path class="st0" d="M7.3,22.8c0.1-0.1,0.3-0.1,0.4-0.2c-0.2,0-0.3,0.1-0.5,0.1C7.2,22.8,7.1,22.9,7.3,22.8z"/>
		</g>
		<g>
			<path class="st0" d="M6.7,23C6.7,23,6.7,23,6.7,23C6.7,23,6.6,23,6.7,23z"/>
		</g>
		<g>
			<path class="st0" d="M9.2,22.2C9.2,22.2,9.2,22.2,9.2,22.2C9.2,22.2,9.2,22.2,9.2,22.2L9.2,22.2z"/>
		</g>
		<g>
			<path class="st0" d="M7.1,22.8c-0.1,0-0.2,0.1-0.3,0.1C7,22.9,7.1,22.8,7.1,22.8C7.2,22.8,7.2,22.8,7.1,22.8z"/>
		</g>
		<g>
			<path class="st0" d="M8.2,22.6c-0.1,0-0.1,0-0.2,0C8.1,22.6,8.2,22.6,8.2,22.6z"/>
		</g>
		<g>
			<path class="st0" d="M6.7,23C6.7,23,6.7,23,6.7,23C6.8,23,6.7,23,6.7,23z"/>
		</g>
		<g>
			<path class="st0" d="M6.7,23c0.1,0,0.1-0.1,0.2-0.1C6.8,22.9,6.7,23,6.7,23C6.7,23,6.7,23,6.7,23z"/>
		</g>
		<g>
			<path class="st0" d="M9.6,21.6c0,0-0.1,0.1-0.2,0.1c-0.1,0-0.1,0-0.2,0.1c-0.1,0-0.2,0-0.2,0c-0.3,0.1,0,0.3,0.3,0.4
				c0,0,0-0.1,0.3-0.2c-0.1,0-0.7,0.1-0.4,0c0.2-0.1,0.3-0.1,0.3-0.1c0.1,0,0.1,0,0.2,0c-0.2,0,0.5-0.3,0.3-0.4L9.6,21.6
				C9.6,21.7,9.7,21.6,9.6,21.6z"/>
		</g>
		<g>
			<path class="st0" d="M8.7,22.4l-0.1,0c0.1,0,0.2,0,0.4,0c0.2-0.1,0.2-0.1,0.2-0.2L8.7,22.4L8.7,22.4z"/>
		</g>
		<g>
			<path class="st0" d="M8,22.6c0.1-0.1,0.4-0.2,0.2-0.2c-0.4,0.1-0.2,0.1-0.4,0.2C8.3,22.4,7.6,22.6,8,22.6c-0.1,0-0.2,0.1-0.3,0.1
				C7.8,22.6,7.9,22.6,8,22.6C8,22.6,8,22.6,8,22.6L8,22.6C8,22.6,8,22.6,8,22.6C8,22.6,7.9,22.6,8,22.6C8,22.6,8,22.6,8,22.6
				C8,22.6,8,22.6,8,22.6C8.2,22.5,8,22.6,8,22.6C8,22.6,8,22.6,8,22.6C8,22.6,8,22.6,8,22.6l0.5-0.2C8.4,22.4,8.3,22.5,8,22.6z"/>
		</g>
		<g>
			<path class="st0" d="M5,23.1C5.1,23.1,5.1,23.1,5,23.1C5.1,23.1,5.1,23,5,23.1z"/>
		</g>
		<g>
			<path class="st0" d="M5.3,23c0,0-0.1,0.1-0.2,0.1c-0.1,0,0,0,0-0.1c-0.1,0-0.3,0.1,0,0.1l0,0c0.2-0.1,0.6-0.1,0.5,0
				C5.5,23.1,5.5,23,5.3,23z"/>
		</g>
		<g>
			<path class="st0" d="M6.7,22.8l0.5-0.2l-0.3,0l0,0C6.6,22.7,6.7,22.7,6.7,22.8z"/>
		</g>
		<g>
			<path class="st0" d="M9.3,22.2L9.3,22.2c0,0,0.1,0,0.2-0.1L9.3,22.2z"/>
		</g>
		<g>
			<polygon class="st0" points="9.9,22.1 9.9,22.1 10.1,22.1 			"/>
		</g>
		<g>
			<path class="st0" d="M45.9,20l0.1,0C46,20,46,20,45.9,20z"/>
		</g>
		<g>
			<path class="st0" d="M44.9,19.9L44.9,19.9C44.9,19.9,44.9,19.9,44.9,19.9z"/>
		</g>
		<g>
			<path class="st0" d="M25.4,19.8c0.2,0.1,0.5,0.2,0.4,0.1l-0.1-0.1C25.6,19.8,25.5,19.8,25.4,19.8z"/>
		</g>
		<g>
			<path class="st0" d="M36.2,19.5C36.2,19.5,36.2,19.5,36.2,19.5c-0.1,0-0.2,0-0.2,0C36.1,19.5,36.2,19.5,36.2,19.5z"/>
		</g>
		<g>
			<path class="st0" d="M36.4,19.2l0.3,0.1C36.6,19.3,36.5,19.2,36.4,19.2z"/>
		</g>
		<g>
			<path class="st0" d="M51.6,20.6l0.2-0.1C51.6,20.5,51.7,20.5,51.6,20.6z"/>
		</g>
		<g>
			<path class="st0" d="M16.3,20.7c0.2,0,0.3,0,0.5,0C16.6,20.6,16.4,20.6,16.3,20.7z"/>
		</g>
		<g>
			<path class="st0" d="M45.4,20.8c0.1,0,0.1,0,0.1,0C45.5,20.7,45.4,20.7,45.4,20.8z"/>
		</g>
		<g>
			<path class="st0" d="M17.3,20.6C17.3,20.6,17.2,20.6,17.3,20.6c-0.2,0-0.4,0.1-0.5,0.1C16.9,20.7,17.1,20.6,17.3,20.6z"/>
		</g>
		<g>
			<path class="st0" d="M65.4,15.8C65.4,15.8,65.4,15.8,65.4,15.8C65.3,15.8,65.4,15.8,65.4,15.8z"/>
		</g>
		<g>
			<path class="st0" d="M60.1,13.5c0.1,0,0.2-0.1,0.3-0.1C60.3,13.4,60.3,13.5,60.1,13.5z"/>
		</g>
		<g>
			<path class="st0" d="M12.4,21.5C12.3,21.5,12.4,21.5,12.4,21.5L12.4,21.5z"/>
		</g>
		<g>
			<path class="st0" d="M11.7,21.3C11.7,21.3,11.8,21.3,11.7,21.3C11.8,21.3,11.7,21.3,11.7,21.3z"/>
		</g>
		<g>
			<path class="st0" d="M18.6,19.9C18.6,19.9,18.6,19.9,18.6,19.9C18.5,19.9,18.5,19.9,18.6,19.9z"/>
		</g>
		<g>
			<path class="st0" d="M12.2,21.5c0.1,0,0.1,0,0.2,0C12.4,21.5,12.3,21.5,12.2,21.5z"/>
		</g>
		<g>
			<path class="st0" d="M12.3,21.5c0,0-0.1,0-0.1,0C12.1,21.6,12.1,21.6,12.3,21.5z"/>
		</g>
		<g>
			<path class="st0" d="M12.6,21.5c-0.1,0-0.1,0-0.2,0c0,0,0,0,0,0C12.5,21.5,12.5,21.5,12.6,21.5z"/>
		</g>
		<g>
			<path class="st0" d="M61.2,21.6C61.3,21.6,61.3,21.6,61.2,21.6C61.4,21.6,61.3,21.6,61.2,21.6z"/>
		</g>
		<g>
			<path class="st0" d="M29,18.9C29,18.9,29,18.9,29,18.9C29,18.9,29,18.9,29,18.9L29,18.9z"/>
		</g>
		<g>
			<path class="st0" d="M29.5,18.9c-0.2,0.1-0.3,0.1-0.5,0.1l0.2,0.2L29.5,18.9z"/>
		</g>
		<g>
			<path class="st0" d="M48.4,20.3l-0.3-0.1c0.4-0.1,0.7,0,0.4-0.1c-0.1,0.2-1.3-0.1-1.4,0.1l-0.2-0.1c0.1,0,0.1,0,0.1,0
				c-0.4-0.2-0.3,0.1-0.9,0c-0.2,0-0.3-0.1-0.2-0.1l-0.4,0c-0.1,0-0.1-0.1,0,0l-0.7-0.1l0,0c-0.1,0-0.3,0.1-0.4,0.1
				c-0.2-0.1,0.1,0,0-0.1l-0.4,0c-0.1-0.1,0.2-0.1,0.4-0.1c-0.3-0.3-0.3,0-1-0.2l0.4,0c-0.2-0.2-0.5-0.1-0.9-0.3
				c0.1,0.1,0.8,0.3,0.4,0.3c-0.1,0-0.3-0.1-0.5,0c0-0.1-0.2-0.1-0.5-0.1l0-0.1c-0.3,0-0.3,0.1-0.4,0.1c-0.3,0-0.4-0.1-0.4-0.2
				c-0.5-0.1,0.3,0.2-0.3,0.1c-0.4-0.1-0.7-0.1-1.2,0c-0.3-0.1,0.1-0.1,0-0.1l-0.3,0.1c-0.1,0,0,0,0,0c-0.2,0,0,0.1-0.4,0.1
				c-0.1,0.1-0.7-0.2-1.2-0.1c-0.1,0,0.1-0.1,0-0.1c-0.6,0-0.5,0-1,0.1l-0.4-0.1c0.3,0.1-0.1,0.2-0.4,0.2c0.1,0,0.2,0.1,0.3,0.1
				l-0.6,0c-0.1,0,0-0.1,0.1-0.1c0,0-0.1,0-0.1,0c-0.2-0.1-0.1-0.1,0.1-0.2c0.1,0,0.1,0.1,0.2,0.1c0.1-0.1,0.3-0.1,0.2-0.2
				c0,0-0.1,0-0.2,0c0,0,0.1,0,0,0c0,0-0.1,0-0.2,0L36,19.2l0,0l-0.7-0.1c-0.5,0.1-1,0.3-1.8,0.3c0.2-0.1,0.1-0.2,0.1-0.3
				c0.2,0.1,0.6,0,1.1,0c-0.2,0-0.2-0.1-0.1-0.1l-0.8,0.1c0-0.1-0.2-0.1-0.4-0.1c0.1,0.2-0.6,0.1-0.9,0.1c0-0.1,0.1-0.1,0.4-0.1
				c-0.4-0.2-0.5,0.2-0.9,0.1c0.1,0,0.1,0,0.2,0c-0.2,0-0.7,0-0.6-0.1l0.1,0c-0.3,0-0.8,0-1.2,0c-0.4,0-0.7,0.1-0.8,0.1
				c0,0,0.1-0.2,0.1-0.2c-0.4,0.2-0.7,0.3-1.1,0.5c0.1-0.1-0.3-0.4,0.2-0.5c-0.1,0-0.3,0-0.6,0c0.1,0,0.2,0.2,0.1,0.2
				c-0.4-0.1-0.3-0.1-0.7-0.2c0.1,0,0,0.2-0.2,0.2c0,0,0-0.2,0.1-0.2L27,19.1c0.1,0,0-0.2-0.1-0.2c0.1,0-0.5,0-0.7,0l0.2,0
				c-0.7,0-0.6,0.3-1.3,0.3c0.1,0,0.2-0.3-0.1-0.3c-0.1,0.1-0.6,0.5-1.2,0.6l-0.1-0.1l-0.4,0.1c0.1-0.1,0.4-0.2,0.7-0.4
				c0.3-0.1,0.6-0.3,0.8-0.3c-0.2,0-0.1-0.1-0.4,0c-0.1,0,0.2-0.1,0.3-0.1c-0.3,0-0.6,0-0.9,0c0,0.1-0.6,0.2-0.6,0.3
				c0.3-0.1,0.6-0.1,0.9-0.2c0,0.1-0.1,0.2-0.3,0.2c-0.2,0.1-0.5,0.2-0.8,0.2c-0.2,0,0.1-0.2,0.1-0.3c-0.1,0-0.6,0.1-0.6,0.1
				c0.1,0,0.2-0.1,0.3-0.1c-0.2,0-0.3,0-0.4,0.1c-0.1,0-0.3,0.1-0.5,0c-0.1,0-0.4-0.1-0.5,0c0.2,0.1,0.3,0.5,0.2,0.7
				c0,0-0.7-0.1-0.9-0.1c-0.2-0.1,0.3-0.3,0.1-0.4c0,0-0.1,0.1-0.2,0.1c-0.1,0,0-0.1-0.3-0.1c0,0.1-0.2,0.1-0.3,0.1
				c-0.1,0-0.1,0,0.1,0c-0.3,0.1-0.3,0-0.7,0.1c0.1,0.1-0.3,0.3-0.6,0.4c0,0-0.1-0.1-0.1-0.1c-0.3,0-0.6,0.1-0.8,0.1
				c-0.2,0-0.5,0-0.8,0.1c-0.1,0-0.3,0-0.2-0.1c-0.1,0-0.2,0.1-0.3,0.1c-0.4,0,0.4-0.1,0.1-0.2c0,0.1-0.5,0.2-0.7,0.3
				c0.1,0.1,0.6-0.1,0.9-0.2c0,0.1-0.4,0.4-1,0.6c-0.5,0.1-0.2-0.1-0.3,0c-0.5,0.1-0.6,0.2-0.8,0.3c-0.1,0-0.2,0.1-0.3,0.1
				c-0.1,0-0.1,0-0.2,0c-0.1,0-0.2,0-0.2,0c-0.3,0-0.1-0.2-0.1-0.2c0.4-0.1,0.6-0.1,0.9-0.1l-0.3,0c0.1-0.1,0.4-0.1,0.5-0.1
				c-0.1,0-0.2,0-0.4,0c-0.2,0-0.4,0.1-0.6,0.1c-0.4,0.1-0.9,0.2-1.3,0.2c-0.1,0.1-0.3,0.1-0.2,0.2c0.1,0,0.1,0,0.2-0.1
				c0.1,0,0,0.1-0.1,0.1c-0.1,0-0.2,0.1,0,0.1c-0.3,0.1-0.6,0.3-1,0.3l-0.1-0.1c0,0,0.3,0,0.4-0.1c-0.2,0.1-0.7,0-0.8,0.2l0.3,0
				c-0.1,0-0.1,0.1-0.2,0.1c-0.1,0-0.2,0.1-0.2,0.1c-0.2,0.1-0.3,0.1-0.5,0.2c0.2,0.1,0.1,0,0.4,0c-0.1,0,0.1-0.1,0.3-0.2
				c0.2-0.1,0.4-0.1,0.2-0.1c0.3,0.1,0.5,0,0.9,0c0,0-0.1,0,0.2-0.1c0,0,0,0,0.1,0c0,0,0,0,0,0c0,0,0,0,0,0c0,0,0,0,0,0
				c-0.1,0-0.1,0-0.2,0c0.1-0.1,0.6-0.2,0.8-0.3c0.2,0-0.1,0.1,0,0.1l0.2-0.1c0,0.1,0.5,0,0.1,0.2l0.4-0.1c0.1,0,0.3,0,0.4,0
				c0.1,0,0.1,0,0.2,0c0.1,0,0.1,0,0.2,0c0.2,0,0.5-0.2,0.3-0.1l0.6-0.2l0,0c0.2,0,0.3-0.1,0.5-0.1c0.2,0,0.3-0.1,0.5-0.1
				c0.3-0.1,0.7-0.1,1-0.1c0.2,0,0.4-0.1,0.8-0.1l0.1,0.1c0.1,0,0.3,0,0.5-0.1c0.2,0,0.3,0,0.4-0.1c0.2,0.1,0.5,0,0.8,0
				c0.2,0,0.3-0.1,0.5-0.1c0.2,0,0.3,0,0.4,0l0-0.1c0.2,0,0.3,0,0.5-0.1c0.2,0,0.3-0.1,0.5-0.1l0-0.1c0.2,0,0.4-0.1,0.6-0.1
				c0.2,0,0.5,0,0.8,0c0,0-0.2,0-0.3,0c0.3,0.1,0.7,0,1,0c0.3-0.1,0.7-0.1,1-0.1c0.1,0,0.3,0,0.4,0c0,0,0,0,0,0c0,0,0,0,0.1,0
				c0.1,0,0.1,0,0.2,0c-0.1,0-0.1,0-0.2,0c0.1,0,0.3,0,0.5,0l0.1,0.1c0,0,0,0,0,0c0.2,0,0.1,0,0-0.1c0.1,0,0.2,0,0.2-0.1
				c0.1,0.1,0.4-0.1,0.6,0.1c0.1,0,0.3-0.1,0.5-0.1c0.2,0,0.4-0.1,0.5-0.1c0,0,0.1,0,0,0c0.2,0,0.4,0,0.5,0l0.1,0.1l0.4-0.1
				c0.3,0.1,0.4,0.1,0.1,0.2c0.6-0.1,0.5,0,1-0.2l0,0.1c0.2,0,0.5-0.1,0.6,0c0.2,0.1,0.7,0.1,1.3,0.1c0.6,0,1.3,0,1.8,0.1
				c-0.2-0.2,0.5,0.1,0.5,0c0.1,0.1,0.2,0.1,0,0.1c0.5,0,0.8,0.1,1.2,0c0.1,0.1-0.1,0.1-0.1,0.1c0,0,0.2,0,0.2,0
				c0.1,0-0.1,0-0.2,0.1c0.5,0,0.6-0.1,0.7-0.3c0.3,0.1,0.4,0.1,0.6,0c0.1,0.1,0.3,0.1-0.1,0.1c0.2,0,1.2,0.1,1.2,0
				c0.1,0,0.3,0,0.3,0c0.4,0,0.5,0.1,0.9,0.1l-0.1,0c0.2-0.1,0.4,0,0.7,0l0,0c0.8,0.2,0.3,0,1.1,0.2l0-0.1c0.1-0.2,0.7,0.2,1.1,0.1
				l-0.2-0.1c0.2,0,0.7,0.3,0.9,0.4c0.1,0-0.1,0-0.2,0c0.6,0.2,0.1-0.1,0.6-0.1c0.1,0.1-0.1,0.1,0.2,0.2c0.2,0.1,1-0.1,1.4,0.1
				c-0.1-0.1-0.2-0.1,0-0.1c0.3,0,0.9,0.3,1.2,0.2c0,0,0.1,0,0.1,0c0.3,0,0.9,0,1,0c0.2,0.3,1.6,0,1.6,0.3l0.8,0.1l0,0
				c0.5,0.1,0.7,0,0.9,0c0.1,0,0,0,0,0.1c0.7,0.1,0.8,0.1,1.5,0.1l0.1,0.1c0.2,0,1.1,0.3,1.8,0.2c0,0,0,0-0.1,0
				c0.8,0,1.9,0.5,2.3,0.2l0.6,0c-0.7-0.1,0.1-0.1-0.2-0.2c0.3,0,0.7,0.2,0.4,0.2l-0.1,0c-0.1,0.2,0.9,0.1,0.8,0.3
				c1.4,0.1,2.7,0.3,4.1,0.3l-0.1-0.1c0.2,0,0.3,0,0.5,0c0.1,0,0.2,0.1-0.2,0.1c0.2,0.1,0.6-0.1,0.6-0.1c0.6,0.1-0.3,0.2-0.1,0.2
				l0.3,0l-0.1,0c0.1,0,0.2-0.1,0.2-0.1c0.1,0,0.2,0,0.4,0c0.3,0,0.1,0.1,0.2,0.1c0,0,0,0,0.2,0c0.2,0,0.4,0,0.6,0
				c-0.1,0-0.2-0.1-0.2-0.1c0.3-0.1,0.5,0,0.3-0.1c0.2,0.1,0.7,0,1.3-0.1c0.3-0.1,0.5-0.1,0.7-0.2c0.2-0.1,0.4-0.1,0.4-0.2
				c0.2-0.1,0.3-0.2,0.5-0.4c0.2-0.1,0.3-0.3,0.5-0.5c0,0-0.1,0.1-0.1,0c0,0,0,0,0-0.1c0,0,0.1-0.1,0.1-0.2c0,0.1,0.1,0.1,0.1,0
				c0-0.1,0.1-0.1,0.2-0.3c0.1-0.1,0.1-0.2,0.1-0.4c0-0.1,0.1-0.2,0.2-0.3c-0.1,0.1,0-0.1,0-0.4c0-0.1,0-0.1,0-0.2c0,0,0-0.1,0-0.1
				c0,0,0,0,0,0c0,0,0,0,0,0c0-0.1,0-0.1-0.1,0c0-0.2,0-0.2,0.1-0.2c0,0,0,0,0,0c0,0,0,0,0-0.1c0-0.1,0-0.1,0-0.2c0-0.1,0-0.1,0-0.2
				c0-0.1,0-0.2-0.1-0.3c0-0.2-0.1-0.4-0.2-0.7c-0.1-0.2-0.1-0.4-0.2-0.7c0-0.1,0-0.1-0.1-0.2c0-0.1-0.1-0.1-0.1-0.2
				c-0.1-0.1-0.1-0.2-0.2-0.3c0,0,0,0.2-0.1,0c0-0.2-0.1-0.3-0.2-0.5c-0.1-0.1-0.1-0.1-0.2-0.1c0,0-0.1,0-0.1-0.1
				c0,0-0.1-0.1-0.1-0.2c0,0.1,0,0.1-0.1,0c-0.6-0.7-1.4-1.3-2.4-1.6c-0.2-0.1-0.5-0.1-0.7-0.2c-0.1,0-0.2,0-0.4-0.1
				c-0.1,0-0.2,0-0.4,0c-0.5,0-1,0-1.5,0c0.1,0,0.2,0,0.1,0c0,0,0,0-0.1,0c0,0-0.1,0-0.1,0c0.1,0,0,0.1,0.1,0.1
				c-0.3,0-0.5,0.1-0.8,0.1c0,0-0.1,0.1-0.2,0.1c-0.1,0-0.2,0.1-0.3,0.1c-0.2,0.1-0.4,0.2-0.4,0.3c0.1,0,0.1-0.1,0.2-0.1
				c-0.1,0.1,0,0.1,0.2,0.1c0.2,0,0.4,0,0.4,0.1c0,0,0.1-0.1,0.1-0.1c0,0,0.1,0,0.1-0.1c0.1,0,0.2-0.1,0.4-0.1c0,0,0.1,0,0.1,0
				c0,0,0.1,0,0.1,0c0.1,0,0.1,0,0.2,0c0.1,0,0.1,0,0.2-0.1c0.1,0,0.1-0.1,0.2-0.1c0.1,0-0.1,0.1,0,0.1c0,0,0.1,0,0.1-0.1
				c0,0,0.1,0,0.1,0c0,0,0.1,0,0.2,0c0.1,0,0.1,0,0.2,0l0,0c0.1,0,0.1,0,0.2,0c0.1,0,0.1,0,0.2,0c0.1,0,0.2,0,0.3,0c0,0,0.1,0,0.1,0
				c0,0,0.1,0,0.1,0c0.1,0,0.2,0,0.2,0.1c0.3,0.1,0.6,0.2,1.1,0.5l0-0.1c0.1,0.1,0.1,0.1,0.2,0.1c0,0,0.1,0.1,0.1,0.1
				c0.1,0,0-0.1-0.1-0.1c-0.1,0-0.1-0.1-0.2-0.1c0,0,0-0.1,0-0.1c0,0,0.1,0.1,0.1,0.1c0,0,0.1,0.1,0.2,0.1c0.1,0,0.1,0.1,0.2,0.1
				c0.1,0.1,0.2,0.1,0.2,0.2c0.3,0.2,0.6,0.5,0.6,0.6c0.1,0.1,0.1,0.1,0.1,0c0,0,0-0.1,0.1,0c0,0,0,0.1,0,0.1l0.1,0
				c0.1,0.1,0.1,0.2,0.1,0.2c0,0.1,0,0.1,0,0.1c0,0-0.1-0.1-0.1-0.1c0,0.1,0.1,0.1,0.1,0.2c0,0,0.1,0.1,0.1,0.1c0,0,0,0,0,0.1
				c0,0,0,0,0,0.1c0.1,0.1,0.2,0.3,0.2,0.3c0-0.1-0.1-0.2-0.1-0.3c0.3,0.3,0.5,0.8,0.7,1.2c0.1,0.2,0.1,0.5,0.2,0.7
				c0,0.2,0.1,0.4,0.1,0.7l0-0.1c0,0,0,0,0,0.1c0,0,0,0,0,0c0,0,0,0.1,0,0.1c0,0.1,0,0.1,0,0.2c0,0.1,0,0.2,0,0.2
				c0,0.1,0,0.1-0.1,0.2c0,0.1-0.1,0.2-0.1,0.4l0,0c0,0.1,0,0.2,0,0.2c0,0.1-0.1,0.2-0.1,0.2c0-0.1,0,0-0.1,0c-0.1,0-0.1,0.1-0.1,0
				c-0.1,0.1-0.1,0.2-0.2,0.3c0,0.1-0.1,0.1-0.1,0.1c0,0,0,0,0,0.1c0,0-0.1,0.1-0.1,0.2c0,0-0.1,0-0.1,0c-0.1,0.1-0.1,0.1-0.1,0.1
				c-0.1,0-0.1,0.1-0.3,0.2c0.1-0.1,0.1-0.1,0-0.1c-0.1,0-0.1,0,0-0.1c-0.4,0.1-0.7,0.1-0.9,0.2c-0.2,0.1-0.4,0.1-0.6,0
				c-0.2,0.1,0,0.1,0.2,0.1c0.2,0,0.4-0.1,0.3,0c0.1,0,0,0.1-0.1,0.1c-0.1,0-0.3,0.1-0.4,0.1c-0.1,0-0.2,0-0.4-0.1
				c-0.2,0-0.4-0.1-0.7-0.1c0.1,0,0.1,0,0.1,0c-0.2,0-0.5,0.1-0.8,0c-0.2,0.1-0.4,0-0.4,0.1c0.2,0,0.4,0,0.6,0
				c-0.3,0-0.7,0.2-1.2,0.1c0,0,0.2-0.1,0.3-0.1c-0.2,0-0.3,0-0.5,0c0-0.1,0.2-0.1,0.4-0.1c0.2,0,0.5,0,0.7-0.1
				c-0.2-0.1-0.7,0.1-0.5-0.1c-0.3,0.2-0.6,0-1.1,0.1l0-0.1c-0.1,0-0.2,0-0.3,0l0.2-0.1c-0.4,0.1-0.7-0.1-1-0.1
				c0.7,0,0.2,0.1,0.5,0.2c-0.4,0-0.6,0-0.7-0.1c-0.1-0.1-0.3-0.2-0.8-0.2c0.1,0,0.5,0.1,0.3,0.1c-0.2,0-0.4-0.1-0.5-0.1
				c-0.7,0,0.1,0.1-0.2,0.1c-0.2-0.1-0.3,0-0.6,0l0-0.1c-0.7-0.1-0.2,0.2-0.9,0l0.3-0.1l-0.4,0l0.1-0.1c-0.4,0-0.5,0-0.9-0.1
				c0.1,0.1-0.1,0.2-0.4,0.1c-0.2-0.1,0.1-0.1-0.3-0.1c0.1,0,0.2-0.1,0.4,0c0,0,0.1,0,0.1-0.1c-0.2-0.1-0.6-0.1-0.8-0.1
				c0.1,0,0.1,0,0.2,0l-0.7,0c-0.1,0,0-0.1,0.1-0.1c-0.1,0-0.2,0-0.4,0c0.1-0.1,0.1-0.1,0.3-0.1l-0.7,0c0,0-0.3-0.1-0.2-0.1
				c-0.4-0.1-0.9,0-1.4-0.1c0,0-0.1,0-0.2,0c-0.4-0.1-0.8-0.2-1.4-0.2l-0.3-0.2c-0.4,0,0.4,0.2-0.3,0.2c-0.5,0-0.2-0.1-0.3-0.2
				c-0.3,0-0.7,0.1-1.1,0C48.2,20.2,48.3,20.2,48.4,20.3z M43.3,19.8c0.1,0,0.3,0,0.4,0C43.6,19.9,43.5,19.8,43.3,19.8z M35.5,19.3
				c0.1,0,0.2,0,0.3,0C35.7,19.3,35.6,19.3,35.5,19.3z M13.9,21.1C13.9,21.1,13.9,21.1,13.9,21.1C14.1,21.1,14,21.1,13.9,21.1z
				 M13.4,21.2C13.4,21.2,13.4,21.2,13.4,21.2c0,0,0.1,0,0.2,0C13.6,21.1,13.5,21.1,13.4,21.2z M62.7,22.2L62.7,22.2
				C62.8,22.2,62.8,22.2,62.7,22.2z"/>
		</g>
		<g>
			<path class="st0" d="M36.4,19.2C36.4,19.3,36.4,19.3,36.4,19.2C36.5,19.3,36.5,19.3,36.4,19.2z"/>
		</g>
		<g>
			<path class="st0" d="M51.6,20.6C51.6,20.6,51.6,20.6,51.6,20.6C51.6,20.6,51.6,20.6,51.6,20.6L51.6,20.6z"/>
		</g>
		<g>
			<path class="st0" d="M20.4,19.3c0.1,0,0.2,0,0.2,0C20.6,19.3,20.5,19.3,20.4,19.3z"/>
		</g>
		<g>
			<path class="st0" d="M11.1,21.9l0.3-0.1C11.2,21.8,11.2,21.8,11.1,21.9C11.1,21.8,11.2,21.8,11.1,21.9z"/>
		</g>
		<g>
			<path class="st0" d="M8.5,22c0,0-0.1,0-0.1,0l0,0C8.5,22,8.7,22,8.5,22z"/>
		</g>
		<g>
			<path class="st0" d="M10.7,21.6c0-0.1-0.2,0-0.4,0.1c0,0,0,0,0,0C10.3,21.8,10.5,21.7,10.7,21.6z"/>
		</g>
		<g>
			<path class="st0" d="M10.3,21.7c-0.1,0-0.1,0-0.2,0C10.1,21.8,10.2,21.8,10.3,21.7z"/>
		</g>
		<g>
			<path class="st0" d="M12.9,21.3c-0.1,0,0,0.1-0.1,0.1C12.7,21.5,13.4,21.2,12.9,21.3z"/>
		</g>
		<g>
			<polygon class="st0" points="10.5,21.5 10.6,21.5 10.7,21.4 			"/>
		</g>
		<g>
			<path class="st0" d="M12.1,21.1l-0.3,0.1c0,0,0,0-0.1,0C11.9,21.2,12.1,21.2,12.1,21.1z"/>
		</g>
		<g>
			<path class="st0" d="M11.7,21.2c-0.1,0-0.2,0-0.3,0.1C11.5,21.3,11.6,21.3,11.7,21.2z"/>
		</g>
		<g>
			<polygon class="st0" points="11,21.3 11.1,21.3 11.3,21.3 			"/>
		</g>
		<g>
			<path class="st0" d="M15.6,20.4l0.4-0.1c0,0-0.1,0-0.2,0C15.7,20.4,15.6,20.4,15.6,20.4z"/>
		</g>
		<g>
			<path class="st0" d="M14.5,20.4c0.1,0,0.1,0,0.2,0l0-0.1L14.5,20.4z"/>
		</g>
		<g>
			<path class="st0" d="M15.5,20.2C15.6,20.1,16,20,15.5,20.2C15.5,20.1,15.2,20.2,15.5,20.2z"/>
		</g>
		<g>
			<polygon class="st0" points="20.9,19.6 20.9,19.6 20.9,19.8 			"/>
		</g>
		<g>
			<path class="st0" d="M25.7,18.8c-0.4,0-0.1,0.1-0.5,0.1c-0.1,0,0.3,0,0.2,0.1C25.7,18.9,25.8,18.9,25.7,18.8z"/>
		</g>
		<g>
			<path class="st0" d="M25.5,19c0,0-0.1,0-0.1,0C25.4,19,25.4,19,25.5,19z"/>
		</g>
		<g>
			<path class="st0" d="M59.1,13.8c-0.1,0-0.2,0.1-0.3,0.1L59.1,13.8L59.1,13.8z"/>
		</g>
		<g>
			<path class="st0" d="M58.7,14.2l-0.1-0.1c0,0.1-0.1,0.1-0.1,0.2C58.5,14.3,58.6,14.2,58.7,14.2z"/>
		</g>
		<g>
			<path class="st0" d="M42.6,19.4L42.6,19.4c0,0.1,0.1,0.1,0.2,0.1L42.6,19.4z"/>
		</g>
		<g>
			<polygon class="st0" points="46.3,19.9 46.2,19.9 46.3,20 			"/>
		</g>
		<g>
			<path class="st0" d="M49.4,20.1c-0.1,0-0.3,0-0.4,0C49.3,20.1,49.4,20.3,49.4,20.1z"/>
		</g>
	</g>
	<g>
		<path class="st0" d="M28.8,3.9c-0.5,1.2-0.8,1.9-1,2.4c0.1,0,0.1,0,0.2,0c1.3,0,3.6-0.2,5.3-0.2h0.7c1.9,0,3.6,0.1,5.6,0.2
			c0.2,0,0.3,0,0.1,0.1c-0.3,0-1.2,0-2.2,0c0.2,0,0.1,0,0.2,0c0.2,0,3.3,0,3.3,0.1c0,0-3.1,0-3.4,0c-0.6,0-0.8,0-0.7,0
			c0.4,0,6.1,0,4.3,0c-0.3,0-3.5,0-3.4,0c0,0,3,0.1,2.8,0.1c-0.2,0-0.2,0-0.1,0c0.1,0,0.2,0,0.2,0c0,0-0.3,0-0.7,0c-1,0-1.8,0-4.3,0
			c-1.9,0-2.7,0-2.8,0c-0.1,0-0.1,0-0.1,0c0,0-0.1,0-0.3,0c-0.2,0-0.4,0-0.4,0c0,0-0.1,0-0.1,0c0,0-0.1,0.1-0.5,0.1
			c-0.4,0-0.4,0-0.3,0c0.1,0,0.1,0-0.1,0c-0.1,0-0.3,0-0.4,0c-0.1,0-0.3,0-0.7,0c-0.3,0-0.6,0-0.5,0c0.1,0-0.6,0-1.5,0.1
			c0,0-0.1,0-0.1,0c0.5,0,1.6-0.1,1.8-0.1c0.2,0,1,0,1,0c-0.1,0,0.1,0,0.3,0c0.1,0,0.2,0,0.2,0c0,0,0.2,0,0.3,0h0.3
			c-0.1,0-0.2,0-0.3,0c-0.3,0-0.2,0,0.1,0c0.2,0,0.3,0,0.3,0c0,0,0,0,0.1,0c0,0,0.1,0,0.2,0c0.1,0-0.3,0-0.9,0
			c-0.6,0-1.1,0.1-1.1,0.1c0,0,0.1,0,0.2,0c0.3,0,0.3,0,0,0.1h0c-0.1,0-0.3,0-0.5,0h0c-0.1,0-0.1,0-0.2,0c-0.2,0-0.3,0-0.5,0h0h0h0
			c-0.1,0-0.3,0-0.4,0c0.1,0,0,0-0.1,0h-0.1h-0.2c0,0,0,0,0.1,0c0.3,0,0.3,0-0.1,0c-0.2,0-0.3,0-0.2,0c0,0,0,0,0,0h-0.3
			c-0.1,0-0.2,0-0.3,0v0c0,0-0.1,0-0.2,0c-1.2,2.5-5.3,11.3-3.6,13.4c0.3,0.4,1.7-0.9,2-1.4c0.2,0.2-0.9,1.3-1.2,1.3
			c-0.1,0.2,0.3,0.1,0.8-0.5c0.3-0.4,0.6-0.4,0.5,0.1c-0.3,0.5-0.8,1-1.4,1c-0.6,0-1.1-0.1-1.5-0.6c-0.7-0.9-0.7-2.8-0.2-4.7
			c0.9-3,2-5.8,3.2-8.6c-0.3,0-0.5,0-0.9,0c-1.4,0.1-2.9,0.3-3.4,0.3c-0.1,0,0.2,0.2,0.2,0.2c-0.7,0.2-1.4,0-1.4-0.3
			c0-0.4,0-0.6,0.5-0.7c0.1,0,0.2,0,0.3,0c1.1-0.1,1.2-0.2,2.7-0.3c0.8-0.1,1.6-0.1,2.4-0.2c0,0,0.1,0,0.1,0c0.4-1,0.8-1.9,1.5-3.1
			C27.8,3.1,28,3,28.2,3h0C28.6,3,29.1,3.4,28.8,3.9z M23.9,13.8c0,0.2-0.4,2.1-0.6,1.8C23.2,15.4,23.7,14.2,23.9,13.8L23.8,14
			c-0.1,0.2,0.7-2,0.6-1.9c-2,4.6-1.9,6.6-1.7,6.8c-0.1-0.5,0.3-2.8,0.4-2.6c0,0.1-0.4,3.1-0.2,2.8c0,0,0.1,0,0.1-0.2
			c-0.2,0.2,0.1-0.9,0-0.9c-0.1,0,0-0.3,0.1-0.9c0,0,0,0,0,0c-0.1-0.3,0.3-1.1,0.3-1.1c0,0,0.1,0.1,0.1,0.2c0.7-2.4,2.2-6.4,2.4-6.6
			C25.1,10.4,24.6,12.6,23.9,13.8z M23.1,20.1c0,0,0-0.3-0.1-0.8C22.9,19.9,23,20.1,23.1,20.1z M23.5,7.4c-0.3,0-0.3,0-0.2,0
			C23.4,7.4,23.5,7.4,23.5,7.4z M24.3,7C24.4,7,24.4,7,24.3,7c-0.1,0-0.5,0.1-1,0.1C23.5,7.1,24.1,7,24.3,7L24.3,7z M25.4,6.7
			l-0.5,0h0c-0.2,0-1,0.1-1.1,0.1C23.5,6.8,24.8,6.7,25.4,6.7L25.4,6.7z M25.5,20.2c0,0-0.4,0.5-0.6,0.5h0h0c0,0,0.1,0,0.2,0
			C25.2,20.7,25.4,20.6,25.5,20.2C25.6,20.2,25.5,20.1,25.5,20.2C25.5,20.1,25.5,20.2,25.5,20.2z M25.6,6.7
			C25.5,6.7,25.5,6.7,25.6,6.7L25.6,6.7z M26.5,7.6c0,0-0.6,1.3-0.7,1.6C25.8,9.5,26.8,7.5,26.5,7.6C26.6,7.6,26.6,7.6,26.5,7.6z
			 M28,7.1c0,0-0.2,0-0.4,0v0c0,0,0,0,0.1,0h0.2H28z M30,7c0,0-0.3,0-0.6,0c-0.3,0-0.6,0-0.5,0s0.3,0,0.6,0c0,0,0,0,0.1,0h0.3
			C30,7,30,7,30,7z M29.2,7c0.1,0,0,0-0.1,0c-0.2,0-0.3,0-0.2,0H29H29.2L29.2,7z M31.2,7h-0.1c-0.3,0-0.3,0-0.2,0L31.2,7
			c0,0,0.1,0,0.3,0c0.1,0,0.1,0,0,0H31.2z M31.8,6.7c0,0-0.1,0-0.1,0c0,0-0.1,0-0.1,0s0.1,0,0.1,0C31.8,6.7,31.8,6.7,31.8,6.7z
			 M33.3,6.7H33h-0.5c0,0,0.2,0,0.4,0h0.1C33.2,6.7,33.3,6.7,33.3,6.7z M33.1,6.6c0.1,0,0.1,0-0.2,0s-0.3,0-0.3,0h0.2H33H33.1z
			 M32.8,6.9C32.8,6.9,32.8,6.9,32.8,6.9l0.1,0c0.1,0,0.1,0,0,0h0H32.8L32.8,6.9z M35.5,6.8h-1.1c-0.8,0-1,0-1.1,0c0,0,0.1,0,0.7,0
			c1,0,1.2,0,0.8,0c-0.3,0-0.3,0,0.2,0c0.4,0,0.5,0,0.3,0c-0.3,0-0.8,0-0.9,0h-0.6c-0.3,0-0.5,0-0.4,0C33.7,7,33.6,7,33.3,7
			c-0.3,0-0.3,0-0.3,0c0,0,0,0-0.1,0C32.9,7,32.8,7,32.8,7c0,0,0,0,0,0c0.1,0,0.3,0,0.4,0h0.9c0.3,0,0.6,0,0.9,0h1.2h0.3
			c0.1,0,0.1,0,0.2,0h0.2h0.1h0h0.2c0,0-0.1,0-0.2,0c-0.3,0-0.5,0-1,0c-0.1,0-0.2,0-0.1,0c0.1,0,0.1,0,0,0c0,0,0.2,0,0.7,0H37
			c0.8,0,1.4,0,1.5,0c0.1,0,0,0-0.1,0c-0.1,0-0.4,0-0.7,0c-0.5,0-0.5,0-0.4,0l0,0h0.6h0.9h0.7h0.2c-0.1,0-0.3,0-0.3,0h-0.2
			c0,0,0.6,0,1.8,0c0.1,0,0.3,0,0.4,0c0,0-0.1,0-0.1,0c0,0,0,0,0,0s-0.1,0-0.1,0s0,0-0.1,0c-0.1,0-0.2,0-0.6,0h-0.5c0,0-0.5,0-1.1,0
			C37.9,6.8,36.8,6.8,35.5,6.8z M35.5,6.9c0.1,0,0,0-0.1,0c-0.1,0-0.2,0-0.1,0h0.1H35.5z M37.9,6.5c0.1,0,0,0-0.1,0s-0.3,0-0.2,0
			h0.1H37.9z M38.2,6.9c0.1,0,0,0-0.1,0c-0.2,0-0.3,0-0.2,0H38H38.2z M40.1,6.7C40.1,6.7,40.1,6.7,40.1,6.7l-0.1,0
			c-0.1,0-0.1,0-0.1,0h0.1H40.1z M41.3,6.8"/>
		<path class="st0" d="M31,10.8c1,0.1,1.5,1.2,1.4,1.7c-0.2,0.7-0.7,1.3-1.6,1.9c-0.9,0.6-1.8,0.3-1.8,0.3c-0.4,0.5-0.5,1.8,0.4,1.8
			c1,0,2.9-1.4,3.9-2.2c-0.3,0.3-0.6,0.6-1.1,1c-0.2,0.2-0.3,0.2,1.2-0.9c1.1-0.8,2.3-1.8,0.6-0.4c-1.7,1.5,4.1-3.3,0.6-0.2
			c2.4-1.9,0.6-0.3,0.4,0c-0.7,0.6-0.6,0.5-1,0.8c-0.1,0-0.7,0.6-0.5,0.4c0.2-0.1,0.4-0.2,0.8-0.6c0.2-0.1,0.4-0.3,0.4-0.3
			c-1.4,1.3-3.5,3-5.4,3.1c-0.6,0-1.3-0.4-1.6-1c-0.6-1.2-0.1-3.6,1.8-5c0.5-0.4,1-0.5,1.4-0.5H31z M27.8,15.3c0,0.7,0.4,1,0.5,1.2
			C28.2,16.4,27.8,15.9,27.8,15.3c0.1-0.6,0.5-1.9,0.5-1.9S27.7,14.6,27.8,15.3z M29.4,13.6c0.4,0.1,2.2-1.4,1.8-1.8h-0.1
			C30.6,11.8,29.1,13.5,29.4,13.6z M29.9,16.6c-0.1,0.3,2-1,1.9-1.1C31.4,15.9,29.9,16.7,29.9,16.6z M33.2,14.3"/>
		<path class="st0" d="M36.9,12.5c0.2,0.3,0.1,0.5,0,0.6c0.1-0.1,0.3-0.3,0.6-0.5c0.7-0.6,1.6,0.8,1.5,1.4c-0.1,0.6-0.2,0.7-0.2,1
			c-0.3,1.1,1.1-0.7,1.8-1.4c0.7-0.8,1.1,0.2,1.1,0.4c0.1,0.6-0.4,1.2-0.2,1.9c0.2,0.6,2.9-1.9,3.8-2.6c0.2-0.1,0.3-0.2,0.4-0.3
			c-0.1,0.1-0.2,0.2-0.3,0.3c-0.2,0.3,0.1,0.1,0.3-0.1c0,0-0.5,0.4-0.5,0.5c-0.3,0.4-0.9,0.9-1.3,1.3c0.3-0.1,0.8-0.7,1.2-1.1
			l0.4-0.4c0,0-0.1,0.1-0.3,0.3c-0.2,0.2-0.3,0.3-0.2,0.2c0,0,0.2-0.1,0.3-0.3c0.1-0.1,0.2-0.2,0.2-0.2c0,0.1-0.4,0.5-0.5,0.5
			c0,0,0,0,0,0.1c0,0,0,0-0.1,0.1c0,0-0.1,0,0,0c0,0,0,0.1-0.1,0.2c0,0,0,0,0.1,0c0.3-0.3,1.6-1.8,1-1l-0.1,0.1c0,0-0.1,0.1-0.1,0.1
			c0,0-0.1,0-0.1,0.1c0,0,0,0.1,0,0.2c-0.9,0.9-1.6,1.7-2.8,2.5c-1,0.6-2.3,0.1-2.3-0.7c-0.1-0.7-0.3-0.3-1.7,1
			c-0.6,0.7-1.3,0.1-1.4-0.9c0-0.5,0.2-1.1,0.4-1.7c0.2-1.3-2.5,2.1-2.6,2.6c-0.2,0.5-0.3,0.8-1.1,0c-0.7-0.8,1.4-3.7,1.4-3.8
			c0.2-0.3,0.5-0.7,0.8-0.7C36.5,12.1,36.7,12.2,36.9,12.5z M37.1,13.9c-0.4,0.3-1.2,1.2-1.2,1.5c0,0,1.3-1.6,1.7-1.8
			c0.1,0,0.1-0.1,0.1-0.1C37.6,13.5,37.2,13.6,37.1,13.9z M39.7,15.4c-0.4,0.4-0.7,0.7-0.7,0.7l0.3-0.2c0,0,0.7-0.6,0.8-0.8
			C40.1,15.1,40,15.1,39.7,15.4z M45.3,13.6C45.3,13.6,45.2,13.7,45.3,13.6c0,0.1-0.2,0.3-0.5,0.5c-2.3,1.8-2.4,2.2,0.1-0.1
			c0.1-0.1,0.1-0.2,0.2-0.2C45.3,13.7,45.4,13.6,45.3,13.6L45.3,13.6C45.4,13.5,45.3,13.5,45.3,13.6z M44.8,14
			c-0.2,0.2-0.4,0.4-0.5,0.5l0,0C44.3,14.4,44.5,14.3,44.8,14c0.1,0,0.2-0.1,0.3-0.3C45,13.8,44.9,13.9,44.8,14z M45.3,13.5
			c-0.2,0.2-0.2,0.3-0.2,0.2l0,0c0.1-0.1,0.2-0.2,0.3-0.3L45.3,13.5z M45.8,13.2C45.6,13.4,45.6,13.4,45.8,13.2
			C45.7,13.2,45.8,13.2,45.8,13.2C45.7,13.2,45.7,13.2,45.8,13.2C45.6,13.4,45.6,13.3,45.8,13.2c0.1-0.3,0.2-0.3,0.2-0.3
			S45.9,13.1,45.8,13.2z M45.8,13"/>
		<path class="st0" d="M51,12.6c0.5,0.7,0.4,1.9,0,2.3c-0.2,0.2-0.3,0.2-0.6,0.5c1-0.5,2.2-1.1,3.4-1.6c-0.2,0.1-0.6,0.3-1.6,0.9
			c-0.4,0.3,2.7-1.5,2.8-1.3c0,0-0.7,0.5-2.7,1.5c-0.7,0.5-0.8,0.5-0.9,0.6c0.7-0.3,1.4-0.9,2.3-1.1c-1.2,0.7-1.5,0.9-3,1.8
			c-0.1,0.1-1.1,1.6-2.1,2.2c-1,0.6-1.8-0.3-1.2-1c0.9-0.9,1.8-1.3,2.3-1.6c0.3-0.1,1.5-2.7,0.8-3.2c-1-0.6-3.9,2.3-4.1,2.9
			c-1,1.5-1.8,3.4-2,4.1c-0.5,1.5-1.2,3.5-1.3,3.9c0,0.1,0,0.3-0.1,0.5l-0.1,0.3c-0.5,1.8-0.4,1.6-0.7,2.8c-0.3,0.1,0.6-3,0.7-3.2
			c0.1-0.1,0.6-1.8,0.3-0.9c-0.1,0.3-0.3,0.4-0.1-0.2c0.1-0.3,0.3-0.6,0.3-0.6c0,0,0-0.1,0-0.3c0.4-1.2-0.9,1.8-0.8,2.1
			c0,0.1,0,0.2-0.1,0.3c-0.1,0.4-0.2,0.8-0.3,1.2c-0.4,2-0.6,4.4,0,4.2c0.3-0.1,0.6-0.4,1-0.7c-0.3,0.4-0.9,0.9-0.1,0.2
			c0.1-0.1,0.5-0.5,0.5-0.4c0,0.1-1,1.2-0.3,0.7c0,0-0.1,0.6-0.8,0.8c-0.9,0.3-1.4-0.7-1.5-1.4c-0.2-2.3,1.1-6,2-9
			c0.7-1.9,1.5-4.1,2.3-5.8c0.2-0.3,0.7-2.1,0.9-1.6c0.5,0.1,0.8,0.7,0.7,1.1c-0.1,0.3-0.5,0.6-0.2,0.4C47.7,12.6,49.9,11,51,12.6z
			 M41.4,28.2c-0.1-0.4,0.3-2.8,0.5-3.1v-0.6c0.1,0.1,0.8-2.1,0.8-2.2C42.2,22.7,40.9,27.8,41.4,28.2z M43.1,22L43.1,22
			C43.1,22.1,43.1,22.1,43.1,22C43.1,22.1,43.2,22.1,43.1,22C43.2,22,43.2,22,43.1,22L43.1,22C43.2,22,43.1,22,43.1,22z M43.8,19.8
			c-0.1,0.1-0.3,0.5-0.3,0.9c0,0.1-0.1,0.3-0.1,0.3c0,0.1,0,0,0.1-0.1c0-0.1,0.2-0.4,0.3-0.7c0-0.1,0-0.1,0.1-0.2c0,0,0,0,0,0V19.8
			C43.9,19.9,43.9,19.8,43.8,19.8L43.8,19.8z M44,19.3c0.3-0.6,0.9-2.6,1.8-3.7C45.3,15.9,44.2,18.5,44,19.3z M48.6,12.5
			c-0.1,0.1-1.1,0.5-2,1.7c0,0,0.6-0.6,0.9-0.9C47.8,13.1,48.8,12.3,48.6,12.5z M47.7,13.5c0.4-0.2,0.3-0.3,1-0.6
			c0.1-0.1,0.9-0.4,0.9-0.4C49,12.6,48.5,12.8,47.7,13.5z M47.9,17.8c0.2-0.1,0.6-0.3,1.5-1C49.4,16.9,47.7,18,47.9,17.8z"/>
		<path class="st0" d="M59.8,13.7c0,0,0.5-0.3,0.4-0.1c-0.3,0.3-0.9,0.8-0.9,0.8c0.1,0,1.1-0.7,1.1-0.6c0,0-0.7,0.6-1.5,1.1
			c-0.2,0.1-0.8,0.4-1.9,0.7c-0.3,0.6-0.9,1.6-1.8,2.2c-0.6,0.3-1.2,0.3-1.9-0.4c-1.4-1.5,1.4-4.7,1.5-4.7c0.4-0.3,0.6,0.2,1.2,0
			c0.2-0.1,0.8,0.1,1.2,0.6c0.3,0.3,0.1,1.4,0.1,1.4c0.5-0.1,0.8-0.3,1.5-0.6c0.2-0.1,0.7-0.3,0.8-0.4c0.3,0.1-1.7,0.9-1.6,0.8
			C57.7,14.7,58.7,14.4,59.8,13.7z M54.1,17.2c0.8,0,1.7-1.7,1.7-1.8c-0.6-0.1-0.9-0.6-1-0.8C54.8,14.7,53.3,17.1,54.1,17.2z
			 M56.1,13.5L56.1,13.5c-0.6,0.1-0.7,1.4-0.3,1.5C56.2,14.9,56.4,13.5,56.1,13.5L56.1,13.5z M58.2,14.6c-0.1,0.1,1.2-0.4,1.4-0.7
			C59.2,14.2,58.5,14.5,58.2,14.6z"/>
	</g>
	<g>
		<g>
			<path class="st0" d="M12.6,3.4c0,0.9-0.8,5-1,6.1v0v0c0.1,0,0.2-0.1,0.3-0.2c0.1,0,0.3-0.1,0.4-0.2c0.2,0,0.4-0.2,0.6-0.3
				c1.5-0.7,1.5-0.7,1.3-0.5c1-0.5,0.5,0,0.6,0c-0.1,0.1-0.7,0.4-2.6,1.3c-0.4,0.2-0.7,0.3-0.9,0.4c-0.4,2-0.3,1.4-0.7,3.7
				c-0.6,2.9-1,6.3-0.9,9.8c0,0.3-1,0.2-1.2-0.2c-0.2-0.3-0.3-1.7-0.3-2.8c0-1.3-0.1-0.3,0.2-2.1c0.3-2.6,0.8-5,1.4-7.5
				c-0.1,0.1-0.4,0.2-0.8,0.4c-0.5,0.2-0.9,0.4-1,0.5L8,11.9c0,0,0,0-0.1,0.1c-0.5,0.2-1.1,0.5-1.8,0.8c-2,3.1-1.9,3.2-3,4.9
				c0.1,0.1,0.1,0.2,0.1,0.3c0.4,1.6,0.1,2.6-0.3,3l0,0c0.3-0.2-1.7,1.7-2.5,0.9c-0.7-0.6-0.4-1.8-0.2-2.1c0.6-0.8,1.1-1.9,1.7-2.9
				c-0.1-0.2-0.3-0.4-0.4-0.6C1,15.5,1,14.7,1.4,14.2c0.4-0.5,0.4-0.4,3-1.6c0.8-0.9,1.7-2.8,2.3-3.7c0.4-0.7,3.7-6.3,4.1-6.4
				c0.2-0.2,0.5-0.3,0.7-0.3C12,2.3,12.4,2.6,12.6,3.4z M1.8,17.6c-0.2,0.4-0.6,1-0.6,1c0,0-0.4,0.5-0.4,0.7c0,0.4-0.5,0.5-0.5,1.6
				C0.3,20.6,0.1,20.7,1,19c0.1-0.3,0.2-0.4,0.4-0.7c0.1-0.2,0.4-0.6,0.5-0.8C2,17.5,2,17.3,2.1,17.2c0,0,0-0.1,0-0.1
				C2,17.3,1.9,17.4,1.8,17.6z M2.2,17.5c-0.1,0.1-0.1,0.2-0.1,0.2c0,0,0,0.1-0.1,0.2c0,0.1-0.2,0.4-0.4,0.7
				c-0.1,0.3-0.4,0.7-0.4,0.8c-0.1,0.2-0.1,0.4-0.3,0.6c0,0.1-0.4,1.1-0.4,1.2C0.8,21.2,0.6,20.3,1,20c0.3-0.8,0.9-1.5,1.4-2.4
				C2.3,17.6,2.3,17.5,2.2,17.5L2.2,17.5z M1.8,19.6c-0.2,0.3-0.5,0.9-0.7,1.3c0,0.1,0.1,0,0.4-0.2c0.6-0.3,0.6-0.3,0.9-0.5
				c0.2-0.1,0.3-0.3,0.5-0.5c0.3-0.5,0.2-0.9-0.1-1.5C2.5,18.6,2.2,19.1,1.8,19.6z M2.9,20.1c-0.2,0.5-1.7,1.2-1.7,1.2
				s-0.4,0.3,0.6-0.2c1.2-0.5,1.4-1.4,1.3-1.4L2.9,20.1z M1.7,15.4c0,0.3,0.2,0.6,0.5,1l0.1-0.2c0.4-0.6,1.5-2.5,1.5-2.5
				C3.3,14.2,1.7,14.4,1.7,15.4z M2.7,16.1c0,0-0.2,0.2-0.3,0.4c0,0,0,0.1,0,0.1c0,0,0,0.1,0.1,0.1c0.1-0.2,0.2-0.3,0.3-0.4l0,0
				C2.7,16.3,2.8,16.2,2.7,16.1L2.7,16.1C2.7,16.1,2.7,16.1,2.7,16.1z M3.4,13.7c-0.1,0-1.1,0.6-1,0.5c0.1-0.1,1.4-0.6,1.4-0.6
				l0.1-0.1C3.9,13.4,3.5,13.6,3.4,13.7z M4.8,13.5l-0.2,0.2l-0.8,1.2c0,0-0.2,0.4-0.3,0.4c-0.1,0.1-0.1,0.1-0.1,0.1
				c0,0,0,0.1-0.2,0.2C3.2,15.8,3.1,16,3.1,16c0,0.1-0.1,0.3-0.2,0.5c-0.1,0.1-0.2,0.3-0.3,0.4L2.7,17c0.1-0.1,0.2-0.2,0.2-0.3
				c0,0,0.1-0.1,0.1-0.1s0.1-0.1,0.2-0.3c0.2-0.3,0.4-0.5,0.4-0.5s-0.1-0.3,0.4-0.6C4,15,4,14.9,4.2,14.7c0.3-0.3,0.1-0.5,0.2-0.4
				s0.2-0.2,0.4-0.6C4.9,13.5,5,13.4,5,13.4C5,13.4,4.9,13.5,4.8,13.5z M4.1,13.8c-0.5,0.7-0.8,1.4-1,1.7c0.1,0.1,0.9-1.7,1.2-1.8
				C4.2,13.6,4.1,13.7,4.1,13.8z M4.3,14.8C4,15.1,4.4,15.1,4.3,14.8L4.3,14.8z M4.6,14.5C4.6,14.6,4.6,14.6,4.6,14.5L4.6,14.5
				C4.7,14.5,4.7,14.4,4.6,14.5C4.6,14.4,4.6,14.5,4.6,14.5z M7.6,8.8c-0.6,0.7-0.9,1.5-1,1.8c-0.3,0.5-1.1,1.5-1.1,1.5
				c0,0,0.3-0.1,0.3-0.2c0-0.1,1.1-1.8,1.9-3.2C8.4,7.8,9,6.9,8.9,6.9C8.9,6.9,7.9,8.1,7.6,8.8z M9.1,11.1L9.1,11.1
				c-0.1,0-2.8,1.3-2.8,1.3c0,0,2-0.9,1.9-0.8c0,0,0.6-0.3,0.7-0.3c0,0,0.3-0.1,0.5-0.2c0.2-0.1,0.4-0.2,0.6-0.2c0,0,0-0.1,0-0.1
				C9.5,10.9,9.1,11.1,9.1,11.1z M9.3,10.8c-0.1,0-0.1,0.1-0.1,0.1S9,10.9,8.8,11c-0.3,0.1-0.7,0.3-0.7,0.3
				c-0.5,0.2-1.1,0.5-1.7,0.7c0,0-0.1,0.1,0,0.1C6.9,12,8,11.5,8,11.5c0.1,0,0.3-0.1,0.4-0.2c0.1,0,0.3-0.2,0.6-0.3
				c0.3-0.1,0.6-0.3,0.7-0.3c0,0,0.1-0.1,0.2-0.1v-0.1C9.7,10.6,9.3,10.8,9.3,10.8z M6.7,11.7c1-0.6,2.3-1,3.4-1.6
				c0.1-0.4,0.2-0.9,0.3-1.3c0,0,0,0.1,0,0.2c0.3-1.4,0.8-3.6,0.8-4.1c0-0.1,0-0.2,0-0.2C10.9,4.7,7.4,10.4,6.7,11.7z M8.7,18.7
				C8.7,18.7,8.7,18.8,8.7,18.7c0,0.3,0.1,0.5,0.1,0.6c-0.3,1.8,0,2.6,0,2.8c0.1,0.2,0-1.9,0-3.4c0-0.1,0-0.2,0-0.3l0,0
				c0-0.2,0-0.2,0-0.2C8.7,18.2,8.6,18.6,8.7,18.7z M10.5,11.3c-0.3,1.2-0.5,2-0.8,3.3c0,0.2-0.1,0.5-0.2,0.7c0,0.3-0.1,0.6-0.1,0.9
				c0,0.3-0.1,0.6-0.1,0.6c0,0.1,0,0.2,0,0.2c0,0,0,0,0-0.1c0-0.1,0,0,0,0.1v0.1c0,0.3,0,0.7,0,1.1v-0.8c0,0.1,0,0.3,0,0.3
				s0,0.4,0,0.7c0,0.1,0,0.1,0,0.2c0,0.3,0,0.5,0,0.6c-0.1,1.4,0,1.4,0.2,2.8c0.2-0.9,0.1-2.4,0-3.5c0.1-0.4,0-0.7,0.1-1.1
				c0,0,0.1-0.4,0.1-0.9c0-0.3,0.1-0.5,0.1-0.5c0,0,0.1-0.2,0.1-0.5c0.1-0.5,0.1-0.6,0.2-0.6c0.1,0,0.2-0.2,0.2-0.7
				c0.1-0.4,0-0.5-0.1-0.1c0,0.1-0.1,0.3-0.1,0.3c0,0,0,0,0-0.2c0,0.5,0.6-2.9,0.7-3c0,0,0-0.4,0-0.4C10.6,11,10.5,11.1,10.5,11.3z
				 M9.2,18.6L9.2,18.6C9.2,18.7,9.2,18.7,9.2,18.6l0,0.2c0,0,0-0.3,0-0.5C9.2,18.4,9.2,18.5,9.2,18.6z M9.4,18.7c0,0,0,0.1,0,0.2
				c0,0.2,0,0.5,0,0.6c0,1.1,0.1-0.6,0.1-0.6C9.5,18.8,9.5,18.8,9.4,18.7L9.4,18.7c0.1-0.3,0-0.3,0-0.3S9.4,18.6,9.4,18.7z M9.7,16
				c0,0.1-0.1,0.3,0,0.3c0,0.1,0.1,0,0.1-0.2L9.7,16l0.1-0.1C9.8,15.9,9.7,15.9,9.7,16z M9.9,15.5L9.9,15.5
				C9.9,15.6,9.8,15.6,9.9,15.5C9.8,15.6,9.8,15.4,9.9,15.5L9.9,15.5C9.9,15.4,9.9,15.5,9.9,15.5z M10,10.7C10,10.7,10,10.7,10,10.7
				C10,10.7,10,10.7,10,10.7z M10,10.5L10,10.5L10,10.5z M11,9.1c-0.2,0.9,0.1,0.4,0.2-0.3c0.1-0.3,0.5-2.6,0.6-2.8
				C11.4,6.1,11.3,8.7,11,9.1z M12.3,9.2c0,0-0.1,0.2-0.7,0.3c0,0-0.1,0-0.1,0v0.1c0.6-0.3,1.1-0.6,1.1-0.6
				C12.6,9.1,12.5,9.2,12.3,9.2z"/>
		</g>
		<g>
			<path class="st0" d="M23.1,0.8c0.8,2.6-5.9,13-7.2,13.5c-0.3,0.8-0.6,3.2-0.2,3.6c0.5,0.7,1.9-0.3,2.9-1.4c0.6-0.5-0.3,0,0.6-0.6
				c0.2,0,0.2-0.4,0.5-0.5c0.3-0.2,0.3-0.3,0.3-0.3c0-0.1,0.9-0.7,1-1c1.5-1.2-2.2,3-3.2,3.8c1.5-1,2.9-3.2,2.9-2.9
				c0.1-0.2,0.2-0.3,0.2-0.3h0.1v0c0,0-0.1,0.1-0.1,0.2c0,0,0.1-0.1,0.1-0.1c0.4-0.4,0.4-0.5,0.3-0.3c-0.1,0.1-0.2,0.2-0.2,0.3
				c-0.1,0.2-0.3,0.4-0.4,0.6c-0.1,0.1-0.2,0.2-0.2,0.3c-1.1,1.4-2.2,2.7-3.8,3c-1.1,0.3-1.8-0.4-2-1.6c-0.1-0.4-0.1-0.9,0-1.4
				c-0.7,0.9-1.5,1.7-2.2,1.9c-0.9,0.3-1.6,0-1.8-1.2c-0.1-0.7,0.5-2.4,2.1-3.3c0.7-0.4,1.7-0.3,2.4,0.2c0.1-0.4,0.2-0.7,0.2-0.9
				c1-3.4,1.9-6.1,3.7-9.2c0.9-1.4,1.8-3.1,3-3.2h0C22.4,0,23,0.1,23.1,0.8z M13.7,13.7c-1,0.4-1.6,1.5-1.9,2.3
				c-0.3,0.8-0.1,1.2,1,0.4c0.8-0.6,1.3-1.2,2-1.9C14.8,14.1,14.1,13.6,13.7,13.7z M12.4,17c-0.4,0.5,1.5-0.6,2.5-1.9
				C14.4,15.6,12.6,17.1,12.4,17z M15.6,17.7c0,0-0.3-0.1-0.2-1.5c0-0.7,0.1-0.8,0.2-1.5C15,16.7,15.3,17.9,15.6,17.7z M15.6,12.9
				v0.2c-0.1,0.4-0.1,0.5-0.1,0.5c0,0.1,0.1,0.1,0.1-0.5c0.4-1.2,1.2-3.8,1.2-3.8S15.6,12.3,15.6,12.9z M15.8,13.4
				c0.1-0.1,0.4-1.9,1.1-3.9c0.3-0.7,0.8-1.7,1.1-2.8c0.6-1.5,1.7-3.5,2-4C18,5.5,15.4,13.9,15.8,13.4z M16.7,11.1
				c-0.2,0.5-0.6,1.8-0.6,1.8l1.2-3.6C16.5,11.5,16.9,10.5,16.7,11.1z M22.3,1c-0.9,0.1-3.5,5.3-4.5,7.7c-0.3,0.6-0.9,2.3-1.5,4l0,0
				C18.1,11.2,23.8,0.8,22.3,1C22.3,1,22.3,1,22.3,1L22.3,1z M17.6,11.9c0.2-0.1,1.8-2.7,1.8-2.8C19.4,9,17.5,12,17.6,11.9z
				 M18.7,5.8c-0.2,0.3-0.5,1.1-0.8,1.8c0.4-0.8,1-2,1-2l0-0.1C19,5.5,18.9,5.6,18.7,5.8z M18.1,17.4c0.6-0.5,1.7-1.8,2.3-2.3
				C19.9,15.9,18.6,17,18.1,17.4z M19.6,9c0,0-1.5,2.5-1.3,2.2c0.4-0.4,1.5-2.4,1.5-2.4C19.7,8.9,19.7,8.9,19.6,9z M20.8,6.3
				c0,0-1.9,3.2-1.8,3.1C19.4,9.1,20.9,6.3,20.8,6.3L20.8,6.3z M19.1,5.1c-0.7,1.4,1.8-3.7,2.7-4.3c0,0,0,0,0,0
				C21.4,0.9,19.6,3.8,19.1,5.1z M22.7,1.9c0.1,0.2-0.5,2-1.2,3.5c-1.2,2.3-2.3,3.9-1.7,3.3C21.8,5.6,23.1,1.8,22.7,1.9
				C22.8,1.8,22.8,1.9,22.7,1.9z M21.4,14.3c0,0.1-0.3,0.4-0.3,0.4S21.3,14.4,21.4,14.3C21.4,14.2,22,13.6,21.4,14.3z"/>
		</g>
	</g>
	<g>
		<g>
			<path class="st0" d="M11.2,23.8c0.1,0,0.1,0,0.1,0c0,0,0.1,0,0.1,0.1c0,0,0.1,0.1,0.1,0.1c0,0,0,0.1,0,0.1c0,0,0,0.1,0,0.1
				c0,0,0,0.1-0.1,0.1c0,0-0.1,0-0.1,0.1c0,0-0.1,0-0.1,0v0c0,0,0.1,0,0.1,0c0,0,0.1,0,0.1,0.1c0,0,0.1,0.1,0.1,0.1c0,0,0,0.1,0,0.1
				c0,0.1,0,0.1,0,0.2c0,0-0.1,0.1-0.1,0.1c0,0-0.1,0.1-0.1,0.1c-0.1,0-0.1,0-0.2,0h-0.6v-1.3H11.2z M11.2,24.4c0,0,0.1,0,0.1,0
				c0,0,0.1,0,0.1-0.1c0,0,0.1-0.1,0.1-0.1c0,0,0-0.1,0-0.1c0-0.1,0-0.1,0-0.1s0-0.1-0.1-0.1c0,0-0.1,0-0.1-0.1c0,0-0.1,0-0.1,0
				h-0.5v0.6H11.2z M11.2,25.1c0.1,0,0.1,0,0.2,0c0,0,0.1,0,0.1-0.1c0,0,0.1-0.1,0.1-0.1c0,0,0-0.1,0-0.1c0-0.1,0-0.1,0-0.1
				c0,0-0.1-0.1-0.1-0.1c0,0-0.1,0-0.1-0.1c0,0-0.1,0-0.1,0h-0.5v0.6H11.2z"/>
			<path class="st0" d="M11.1,25.1h-0.6v-1.4h0.6c0.1,0,0.1,0,0.2,0c0,0,0.1,0,0.1,0.1c0,0,0.1,0.1,0.1,0.1c0,0,0,0.1,0,0.2
				c0,0,0,0.1,0,0.1c0,0,0,0.1-0.1,0.1c0,0-0.1,0.1-0.1,0.1c0,0,0,0,0,0c0,0,0,0,0,0c0,0,0.1,0,0.1,0.1c0,0,0.1,0.1,0.1,0.1
				c0,0,0,0.1,0,0.1c0,0.1,0,0.1,0,0.2c0,0-0.1,0.1-0.1,0.1c0,0-0.1,0.1-0.1,0.1C11.3,25.1,11.2,25.1,11.1,25.1z M10.6,25.1h0.5
				c0.1,0,0.1,0,0.1,0c0,0,0.1,0,0.1-0.1c0,0,0.1-0.1,0.1-0.1c0,0,0-0.1,0-0.1c0-0.1,0-0.1,0-0.1c0,0,0-0.1-0.1-0.1
				c0,0-0.1,0-0.1-0.1c0,0-0.1,0-0.1,0h-0.5V25.1z M11.2,24.4C11.2,24.4,11.2,24.4,11.2,24.4L11.2,24.4
				C11.2,24.4,11.2,24.4,11.2,24.4z M10.6,24.4h0.5c0,0,0.1,0,0.1,0c0,0,0.1,0,0.1-0.1c0,0,0.1-0.1,0.1-0.1c0,0,0-0.1,0-0.1
				c0,0,0-0.1,0-0.1c0,0,0-0.1-0.1-0.1c0,0-0.1,0-0.1-0.1c0,0-0.1,0-0.1,0h-0.5V24.4z"/>
		</g>
		<g>
			<path class="st0" d="M13.3,25.1v-1.3h0.6c0.1,0,0.2,0,0.3,0.1c0.1,0.1,0.1,0.1,0.1,0.3c0,0.1,0,0.2-0.1,0.2
				c-0.1,0.1-0.1,0.1-0.2,0.1v0c0.1,0,0.1,0,0.1,0c0,0,0.1,0,0.1,0.1c0,0,0,0.1,0,0.1c0,0,0,0.1,0,0.1c0,0,0,0,0,0.1
				c0,0,0,0.1,0,0.1c0,0,0,0.1,0,0.1c0,0,0,0,0,0h0c0,0,0,0,0-0.1c0,0,0,0,0-0.1c0,0,0-0.1,0-0.1c0,0,0-0.1,0-0.1c0-0.1,0-0.1,0-0.1
				c0,0,0-0.1,0-0.1c0,0-0.1-0.1-0.1-0.1c0,0-0.1,0-0.2,0h-0.5L13.3,25.1L13.3,25.1z M13.8,24.4c0.1,0,0.1,0,0.1,0
				c0,0,0.1,0,0.1-0.1c0,0,0.1-0.1,0.1-0.1c0,0,0-0.1,0-0.2c0-0.1,0-0.2-0.1-0.2c-0.1-0.1-0.1-0.1-0.3-0.1h-0.5v0.6H13.8z"/>
			<path class="st0" d="M14.3,25.1L14.3,25.1l-0.1,0c0,0,0,0,0-0.1c0,0,0,0,0-0.1c0,0,0-0.1,0-0.1c0,0,0-0.1,0-0.1
				c0-0.1,0-0.1,0-0.1c0,0,0-0.1,0-0.1c0,0-0.1,0-0.1-0.1c0,0-0.1,0-0.2,0h-0.5v0.6h-0.1v-1.4h0.6c0.1,0,0.3,0,0.3,0.1
				c0.1,0.1,0.1,0.2,0.1,0.3c0,0.1,0,0.2-0.1,0.2c0,0-0.1,0.1-0.2,0.1c0,0,0,0,0.1,0c0,0,0.1,0,0.1,0.1c0,0,0,0.1,0,0.1
				c0,0,0,0.1,0,0.1c0,0,0,0,0,0.1c0,0,0,0.1,0,0.1C14.2,25,14.2,25,14.3,25.1C14.2,25.1,14.2,25.1,14.3,25.1L14.3,25.1z M13.9,24.5
				C13.9,24.5,13.9,24.5,13.9,24.5L13.9,24.5C13.9,24.5,13.9,24.5,13.9,24.5z M13.3,24.4h0.5c0,0,0.1,0,0.1,0c0,0,0.1,0,0.1-0.1
				c0,0,0.1-0.1,0.1-0.1c0,0,0-0.1,0-0.1c0-0.1,0-0.2-0.1-0.2c-0.1,0-0.1-0.1-0.3-0.1h-0.5V24.4z"/>
		</g>
		<g>
			<path class="st0" d="M15.8,25.1L15.8,25.1l0.5-1.3h0l0.5,1.3h0l-0.2-0.4H16L15.8,25.1z M16.4,23.8L16.4,23.8L16,24.6h0.7
				L16.4,23.8z"/>
			<path class="st0" d="M16.9,25.1L16.9,25.1l-0.3-0.4H16l-0.2,0.4h-0.1l0.6-1.4h0.1L16.9,25.1z M16.1,24.6h0.6l-0.3-0.7L16.1,24.6z
				"/>
		</g>
		<g>
			<path class="st0" d="M18.6,23.8l0.9,1.3h0v-1.3h0v1.3h-0.1L18.6,23.8L18.6,23.8l0,1.3h0L18.6,23.8L18.6,23.8z"/>
			<path class="st0" d="M19.5,25.1L19.5,25.1l-1-1.3v1.3h-0.1v-1.4h0.1l0.9,1.3v-1.3h0.1V25.1z M19.5,25.1L19.5,25.1L19.5,25.1
				L19.5,25.1z M18.5,23.8L18.5,23.8L18.5,23.8L18.5,23.8z"/>
		</g>
		<g>
			<path class="st0" d="M21.7,23.8c0.1,0,0.1,0,0.2,0c0.1,0,0.1,0.1,0.2,0.1c0.1,0.1,0.1,0.1,0.1,0.2c0,0.1,0.1,0.2,0.1,0.3
				c0,0.1,0,0.2-0.1,0.3c0,0.1-0.1,0.2-0.1,0.2C22,25,22,25.1,21.9,25.1c-0.1,0-0.2,0-0.2,0h-0.4v-1.3H21.7z M21.7,25.1
				c0.1,0,0.2,0,0.2,0c0.1,0,0.1-0.1,0.2-0.1c0.1-0.1,0.1-0.1,0.1-0.2c0-0.1,0-0.2,0-0.3c0-0.1,0-0.2,0-0.3c0-0.1-0.1-0.1-0.1-0.2
				c-0.1,0-0.1-0.1-0.2-0.1c-0.1,0-0.1,0-0.2,0h-0.4v1.3H21.7z"/>
			<path class="st0" d="M21.6,25.1h-0.4v-1.4h0.5c0.1,0,0.1,0,0.2,0c0.1,0,0.1,0.1,0.2,0.1c0.1,0.1,0.1,0.1,0.1,0.2
				c0,0.1,0.1,0.2,0.1,0.3c0,0.1,0,0.2-0.1,0.3c0,0.1-0.1,0.2-0.1,0.2C22,25,22,25.1,21.9,25.1C21.8,25.1,21.7,25.1,21.6,25.1z
				 M21.3,25.1h0.4c0.1,0,0.1,0,0.2,0c0.1,0,0.1-0.1,0.2-0.1c0.1,0,0.1-0.1,0.1-0.2c0-0.1,0-0.2,0-0.3c0-0.1,0-0.2,0-0.3
				c0-0.1-0.1-0.1-0.1-0.2c0,0-0.1-0.1-0.2-0.1c-0.1,0-0.1,0-0.2,0h-0.4V25.1z"/>
		</g>
		<g>
			<path class="st0" d="M26.4,23.8c0.1,0,0.1,0,0.1,0c0,0,0.1,0,0.1,0.1c0,0,0.1,0.1,0.1,0.1c0,0,0,0.1,0,0.1c0,0,0,0.1,0,0.1
				c0,0,0,0.1-0.1,0.1c0,0-0.1,0-0.1,0.1c0,0-0.1,0-0.1,0v0c0,0,0.1,0,0.1,0c0,0,0.1,0,0.1,0.1c0,0,0.1,0.1,0.1,0.1c0,0,0,0.1,0,0.1
				c0,0.1,0,0.1,0,0.2c0,0-0.1,0.1-0.1,0.1c0,0-0.1,0.1-0.1,0.1c-0.1,0-0.1,0-0.2,0h-0.6v-1.3H26.4z M26.4,24.4c0,0,0.1,0,0.1,0
				c0,0,0.1,0,0.1-0.1c0,0,0.1-0.1,0.1-0.1c0,0,0-0.1,0-0.1c0-0.1,0-0.1,0-0.1c0,0,0-0.1-0.1-0.1c0,0-0.1,0-0.1-0.1c0,0-0.1,0-0.1,0
				h-0.5v0.6H26.4z M26.4,25.1c0.1,0,0.1,0,0.2,0c0,0,0.1,0,0.1-0.1c0,0,0.1-0.1,0.1-0.1c0,0,0-0.1,0-0.1c0-0.1,0-0.1,0-0.1
				c0,0-0.1-0.1-0.1-0.1c0,0-0.1,0-0.1-0.1c0,0-0.1,0-0.1,0h-0.5v0.6H26.4z"/>
			<path class="st0" d="M26.4,25.1h-0.6v-1.4h0.6c0.1,0,0.1,0,0.2,0c0,0,0.1,0,0.1,0.1c0,0,0.1,0.1,0.1,0.1c0,0,0,0.1,0,0.2
				c0,0,0,0.1,0,0.1c0,0,0,0.1-0.1,0.1c0,0-0.1,0.1-0.1,0.1c0,0,0,0,0,0c0,0,0,0,0,0c0,0,0.1,0,0.1,0.1c0,0,0.1,0.1,0.1,0.1
				c0,0,0,0.1,0,0.1c0,0.1,0,0.1,0,0.2c0,0-0.1,0.1-0.1,0.1c0,0-0.1,0.1-0.1,0.1C26.5,25.1,26.4,25.1,26.4,25.1z M25.9,25.1h0.5
				c0.1,0,0.1,0,0.1,0c0,0,0.1,0,0.1-0.1c0,0,0.1-0.1,0.1-0.1c0,0,0-0.1,0-0.1c0-0.1,0-0.1,0-0.1c0,0,0-0.1-0.1-0.1
				c0,0-0.1,0-0.1-0.1c0,0-0.1,0-0.1,0h-0.5V25.1z M26.4,24.4C26.4,24.4,26.4,24.4,26.4,24.4L26.4,24.4
				C26.4,24.4,26.4,24.4,26.4,24.4z M25.9,24.4h0.5c0,0,0.1,0,0.1,0c0,0,0.1,0,0.1-0.1c0,0,0.1-0.1,0.1-0.1c0,0,0-0.1,0-0.1
				c0,0,0-0.1,0-0.1c0,0,0-0.1-0.1-0.1c0,0-0.1,0-0.1-0.1c0,0-0.1,0-0.1,0h-0.5V24.4z"/>
		</g>
		<g>
			<path class="st0" d="M29.4,25.1L29.4,25.1l-0.9,0v-1.3h0.9v0h-0.9v0.6h0.8v0h-0.8v0.6H29.4z"/>
			<polygon class="st0" points="29.4,25.1 28.5,25.1 28.5,23.7 29.4,23.7 29.4,23.8 28.5,23.8 28.5,24.4 29.3,24.4 29.3,24.5 
				28.5,24.5 28.5,25.1 29.4,25.1 			"/>
		</g>
		<g>
			<path class="st0" d="M32,23.8l-0.5,0.8v0.6h0v-0.6l-0.5-0.8h0l0.5,0.7L32,23.8L32,23.8z"/>
			<polygon class="st0" points="31.4,25.1 31.4,25.1 31.4,24.6 30.8,23.7 30.9,23.7 31.4,24.5 31.9,23.7 32,23.7 31.4,24.6 			"/>
		</g>
		<g>
			<path class="st0" d="M33.5,24.2c0-0.1,0.1-0.2,0.1-0.2c0.1-0.1,0.1-0.1,0.2-0.2c0.1,0,0.2-0.1,0.3-0.1c0.1,0,0.2,0,0.3,0.1
				c0.1,0,0.1,0.1,0.2,0.2c0.1,0.1,0.1,0.1,0.1,0.2c0,0.1,0,0.2,0,0.3c0,0.1,0,0.2,0,0.3c0,0.1-0.1,0.2-0.1,0.2
				c-0.1,0.1-0.1,0.1-0.2,0.2c-0.1,0-0.2,0.1-0.3,0.1c-0.1,0-0.2,0-0.3-0.1c-0.1,0-0.1-0.1-0.2-0.2c-0.1-0.1-0.1-0.1-0.1-0.2
				c0-0.1,0-0.2,0-0.3C33.5,24.3,33.5,24.3,33.5,24.2z M33.6,24.7c0,0.1,0.1,0.2,0.1,0.2c0,0.1,0.1,0.1,0.2,0.1c0.1,0,0.2,0,0.2,0
				s0.2,0,0.2,0c0.1,0,0.1-0.1,0.2-0.1c0-0.1,0.1-0.1,0.1-0.2c0-0.1,0-0.2,0-0.3c0-0.1,0-0.2,0-0.3c0-0.1-0.1-0.2-0.1-0.2
				c0-0.1-0.1-0.1-0.2-0.1c-0.1,0-0.2,0-0.2,0s-0.2,0-0.2,0c-0.1,0-0.1,0.1-0.2,0.1c0,0.1-0.1,0.1-0.1,0.2c0,0.1,0,0.2,0,0.3
				C33.5,24.5,33.5,24.6,33.6,24.7z"/>
			<path class="st0" d="M34.1,25.2c-0.1,0-0.2,0-0.3-0.1c-0.1,0-0.1-0.1-0.2-0.2c-0.1-0.1-0.1-0.1-0.1-0.2c0-0.1,0-0.2,0-0.3
				c0-0.1,0-0.2,0-0.3c0-0.1,0.1-0.2,0.1-0.2c0.1-0.1,0.1-0.1,0.2-0.2c0.1,0,0.2-0.1,0.3-0.1s0.2,0,0.3,0.1c0.1,0,0.1,0.1,0.2,0.2
				c0.1,0.1,0.1,0.1,0.1,0.2c0,0.1,0,0.2,0,0.3c0,0.1,0,0.2,0,0.3c0,0.1-0.1,0.2-0.1,0.2c-0.1,0.1-0.1,0.1-0.2,0.2
				C34.3,25.1,34.2,25.2,34.1,25.2z M34.1,23.8c-0.1,0-0.2,0-0.2,0c-0.1,0-0.1,0.1-0.2,0.1c0,0.1-0.1,0.1-0.1,0.2c0,0.1,0,0.2,0,0.3
				c0,0.1,0,0.2,0,0.3l0,0c0,0.1,0.1,0.1,0.1,0.2c0,0.1,0.1,0.1,0.2,0.1c0.1,0,0.1,0,0.2,0c0.1,0,0.2,0,0.2,0c0.1,0,0.1-0.1,0.2-0.1
				c0-0.1,0.1-0.1,0.1-0.2c0-0.1,0-0.2,0-0.3c0-0.1,0-0.2,0-0.3c0-0.1-0.1-0.1-0.1-0.2c0-0.1-0.1-0.1-0.2-0.1
				C34.3,23.8,34.2,23.8,34.1,23.8z"/>
		</g>
		<g>
			<path class="st0" d="M36.4,23.8l0.9,1.3h0v-1.3h0v1.3h-0.1L36.4,23.8L36.4,23.8l0,1.3h0L36.4,23.8L36.4,23.8z"/>
			<path class="st0" d="M37.4,25.1L37.4,25.1l-1-1.3v1.3h-0.1v-1.4h0.1l0.9,1.3v-1.3h0.1V25.1z M37.3,25.1L37.3,25.1L37.3,25.1
				L37.3,25.1z M36.4,23.8L36.4,23.8L36.4,23.8L36.4,23.8z"/>
		</g>
		<g>
			<path class="st0" d="M39.6,23.8c0.1,0,0.1,0,0.2,0c0.1,0,0.1,0.1,0.2,0.1c0.1,0.1,0.1,0.1,0.1,0.2c0,0.1,0.1,0.2,0.1,0.3
				c0,0.1,0,0.2-0.1,0.3c0,0.1-0.1,0.2-0.1,0.2c-0.1,0.1-0.1,0.1-0.2,0.1c-0.1,0-0.2,0-0.2,0h-0.4v-1.3H39.6z M39.5,25.1
				c0.1,0,0.2,0,0.2,0c0.1,0,0.1-0.1,0.2-0.1c0.1-0.1,0.1-0.1,0.1-0.2c0-0.1,0-0.2,0-0.3c0-0.1,0-0.2,0-0.3c0-0.1-0.1-0.1-0.1-0.2
				c-0.1,0-0.1-0.1-0.2-0.1c-0.1,0-0.1,0-0.2,0h-0.4v1.3H39.5z"/>
			<path class="st0" d="M39.5,25.1h-0.4v-1.4h0.5c0.1,0,0.1,0,0.2,0c0.1,0,0.1,0.1,0.2,0.1c0.1,0.1,0.1,0.1,0.1,0.2
				c0,0.1,0.1,0.2,0.1,0.3c0,0.1,0,0.2-0.1,0.3c0,0.1-0.1,0.2-0.1,0.2c-0.1,0.1-0.1,0.1-0.2,0.1C39.7,25.1,39.6,25.1,39.5,25.1z
				 M39.2,25.1h0.4c0.1,0,0.1,0,0.2,0c0.1,0,0.1-0.1,0.2-0.1c0.1,0,0.1-0.1,0.1-0.2c0-0.1,0-0.2,0-0.3c0-0.1,0-0.2,0-0.3
				c0-0.1-0.1-0.1-0.1-0.2c0,0-0.1-0.1-0.2-0.1c-0.1,0-0.1,0-0.2,0h-0.4V25.1z"/>
		</g>
	</g>
	<g>
		<g>
			<path class="st0" d="M44.5,23.8c0.1,0,0.1,0,0.1,0c0,0,0.1,0,0.1,0.1c0,0,0.1,0.1,0.1,0.1c0,0,0,0.1,0,0.1c0,0,0,0.1,0,0.1
				c0,0,0,0.1-0.1,0.1c0,0-0.1,0-0.1,0.1c0,0-0.1,0-0.1,0v0c0,0,0.1,0,0.1,0c0,0,0.1,0,0.1,0.1c0,0,0.1,0.1,0.1,0.1c0,0,0,0.1,0,0.1
				c0,0.1,0,0.1,0,0.2c0,0-0.1,0.1-0.1,0.1c0,0-0.1,0.1-0.1,0.1c-0.1,0-0.1,0-0.2,0h-0.6v-1.3H44.5z M44.5,24.4c0,0,0.1,0,0.1,0
				c0,0,0.1,0,0.1-0.1c0,0,0.1-0.1,0.1-0.1c0,0,0-0.1,0-0.1c0-0.1,0-0.1,0-0.1c0,0,0-0.1-0.1-0.1c0,0-0.1,0-0.1-0.1c0,0-0.1,0-0.1,0
				h-0.5v0.6H44.5z M44.5,25.1c0.1,0,0.1,0,0.2,0c0,0,0.1,0,0.1-0.1c0,0,0.1-0.1,0.1-0.1s0-0.1,0-0.1c0-0.1,0-0.1,0-0.1
				c0,0-0.1-0.1-0.1-0.1c0,0-0.1,0-0.1-0.1c0,0-0.1,0-0.1,0h-0.5v0.6H44.5z"/>
			<path class="st0" d="M44.5,25.1h-0.6v-1.4h0.6c0.1,0,0.1,0,0.2,0c0,0,0.1,0,0.1,0.1c0,0,0.1,0.1,0.1,0.1c0,0,0,0.1,0,0.2
				c0,0,0,0.1,0,0.1c0,0,0,0.1-0.1,0.1c0,0-0.1,0.1-0.1,0.1c0,0,0,0,0,0c0,0,0,0,0,0c0,0,0.1,0,0.1,0.1c0,0,0.1,0.1,0.1,0.1
				c0,0,0,0.1,0,0.1c0,0.1,0,0.1,0,0.2c0,0-0.1,0.1-0.1,0.1c0,0-0.1,0.1-0.1,0.1C44.6,25.1,44.5,25.1,44.5,25.1z M44,25.1h0.5
				c0.1,0,0.1,0,0.1,0c0,0,0.1,0,0.1-0.1c0,0,0.1-0.1,0.1-0.1c0,0,0-0.1,0-0.1c0-0.1,0-0.1,0-0.1c0,0,0-0.1-0.1-0.1
				c0,0-0.1,0-0.1-0.1c0,0-0.1,0-0.1,0H44V25.1z M44.5,24.4C44.5,24.4,44.6,24.4,44.5,24.4L44.5,24.4C44.6,24.4,44.5,24.4,44.5,24.4
				z M44,24.4h0.5c0,0,0.1,0,0.1,0c0,0,0.1,0,0.1-0.1c0,0,0.1-0.1,0.1-0.1c0,0,0-0.1,0-0.1c0,0,0-0.1,0-0.1c0,0,0-0.1-0.1-0.1
				c0,0-0.1,0-0.1-0.1c0,0-0.1,0-0.1,0H44V24.4z"/>
		</g>
		<g>
			<path class="st0" d="M47.5,25.1L47.5,25.1l-0.9,0v-1.3h0.9v0h-0.9v0.6h0.8v0h-0.8v0.6H47.5z"/>
			<polygon class="st0" points="47.5,25.1 46.6,25.1 46.6,23.7 47.5,23.7 47.5,23.8 46.6,23.8 46.6,24.4 47.4,24.4 47.4,24.5 
				46.6,24.5 46.6,25.1 47.5,25.1 			"/>
		</g>
		<g>
			<path class="st0" d="M49,25.1L49,25.1l0.5-1.3h0l0.5,1.3h0l-0.2-0.4h-0.7L49,25.1z M49.5,23.8L49.5,23.8l-0.3,0.8h0.7L49.5,23.8z
				"/>
			<path class="st0" d="M50.1,25.1L50.1,25.1l-0.3-0.4h-0.7L49,25.1h-0.1l0.6-1.4h0.1L50.1,25.1z M49.2,24.6h0.6l-0.3-0.7L49.2,24.6
				z"/>
		</g>
		<g>
			<path class="st0" d="M51.6,23.8h1v0h-0.5v1.3h0v-1.3L51.6,23.8L51.6,23.8z"/>
			<polygon class="st0" points="52.1,25.1 52,25.1 52,23.8 51.5,23.8 51.5,23.7 52.6,23.7 52.6,23.8 52.1,23.8 			"/>
		</g>
		<g>
			<path class="st0" d="M55,24c0,0-0.1-0.1-0.1-0.1c0,0-0.1-0.1-0.1-0.1c-0.1,0-0.1,0-0.2,0c0,0-0.1,0-0.1,0c-0.1,0-0.1,0-0.1,0
				c0,0-0.1,0.1-0.1,0.1c0,0,0,0.1,0,0.1c0,0.1,0,0.1,0,0.1c0,0,0.1,0.1,0.1,0.1c0,0,0.1,0,0.1,0.1c0.1,0,0.1,0,0.2,0
				c0.1,0,0.1,0,0.2,0c0.1,0,0.1,0,0.1,0.1c0,0,0.1,0.1,0.1,0.1c0,0,0,0.1,0,0.2c0,0.1,0,0.1,0,0.2c0,0-0.1,0.1-0.1,0.1
				c0,0-0.1,0.1-0.2,0.1c-0.1,0-0.1,0-0.2,0c-0.1,0-0.1,0-0.2,0c-0.1,0-0.1,0-0.2-0.1c0,0-0.1-0.1-0.1-0.1c0-0.1,0-0.1,0-0.2h0
				c0,0.1,0,0.1,0,0.2c0,0.1,0.1,0.1,0.1,0.1c0,0,0.1,0.1,0.2,0.1c0.1,0,0.1,0,0.2,0c0.1,0,0.1,0,0.2,0c0.1,0,0.1,0,0.1-0.1
				S55,25,55,24.9c0,0,0-0.1,0-0.1c0-0.1,0-0.1,0-0.2c0,0-0.1-0.1-0.1-0.1c0,0-0.1,0-0.2-0.1c-0.1,0-0.1,0-0.2,0c-0.1,0-0.1,0-0.2,0
				c-0.1,0-0.1,0-0.1-0.1c0,0-0.1-0.1-0.1-0.1c0,0,0-0.1,0-0.2c0-0.1,0-0.1,0-0.2c0,0,0.1-0.1,0.1-0.1c0,0,0.1,0,0.1-0.1
				s0.1,0,0.2,0c0.1,0,0.1,0,0.2,0c0.1,0,0.1,0,0.1,0.1S55,23.9,55,24c0.1,0,0.1,0.1,0.1,0.2h0C55,24.1,55,24,55,24z"/>
			<path class="st0" d="M54.6,25.2c-0.1,0-0.2,0-0.2,0c-0.1,0-0.1,0-0.2-0.1c0,0-0.1-0.1-0.1-0.2c0-0.1,0-0.1,0-0.2l0,0h0.1v0
				c0,0.1,0,0.1,0,0.2c0,0.1,0.1,0.1,0.1,0.1c0,0,0.1,0.1,0.1,0.1c0.1,0,0.2,0,0.3,0c0,0,0.1,0,0.1-0.1c0,0,0.1-0.1,0.1-0.1
				c0,0,0-0.1,0-0.1c0-0.1,0-0.1,0-0.1c0,0-0.1-0.1-0.1-0.1c0,0-0.1,0-0.1-0.1c-0.1,0-0.1,0-0.2,0c-0.1,0-0.1,0-0.2,0
				c-0.1,0-0.1,0-0.2-0.1c0,0-0.1-0.1-0.1-0.1c0,0,0-0.1,0-0.2c0-0.1,0-0.1,0-0.2c0,0,0.1-0.1,0.1-0.1c0,0,0.1,0,0.2-0.1
				c0.1,0,0.3,0,0.4,0c0.1,0,0.1,0,0.2,0.1c0,0,0.1,0.1,0.1,0.1c0,0.1,0,0.1,0,0.2l0,0H55l0,0c0-0.1,0-0.1,0-0.2l0,0
				c0,0-0.1-0.1-0.1-0.1c0,0-0.1,0-0.1-0.1c-0.1,0-0.2,0-0.3,0c0,0-0.1,0-0.1,0c0,0-0.1,0.1-0.1,0.1c0,0,0,0.1,0,0.1
				c0,0.1,0,0.1,0,0.1c0,0,0.1,0.1,0.1,0.1c0,0,0.1,0,0.1,0.1c0.1,0,0.1,0,0.2,0c0.1,0,0.1,0,0.2,0c0.1,0,0.1,0,0.2,0.1
				c0,0,0.1,0.1,0.1,0.1c0,0,0,0.1,0,0.2c0,0.1,0,0.1,0,0.2c0,0-0.1,0.1-0.1,0.1c0,0-0.1,0.1-0.2,0.1C54.7,25.2,54.7,25.2,54.6,25.2
				z"/>
		</g>
	</g>
</g>
</svg>
